<?xml version="1.0" encoding="utf-8"?>
<svg version="1.1" id="Layer_1" xmlns="http://www.w3.org/2000/svg" xmlns:xlink="http://www.w3.org/1999/xlink" x="0px" y="0px"
	 width="857.5px" height="221.25px" viewBox="0 0 857.5 221.25" enable-background="new 0 0 857.5 221.25" xml:space="preserve">
<path fill="#FFFFFF" d="M278.584,54.031c-4.777-13.127-20.048-19.783-45.391-19.783c-5.188,0-10.751,0.293-16.596,0.841
	c-18.331-17.048-42.882-27.492-69.83-27.492C94.46,7.597,51.171,46.93,44.913,97.57c-1.464,1.012-2.901,2.026-4.292,3.043
	c-26.014,18.994-36.432,36.245-30.963,51.274c4.777,13.127,20.049,19.783,45.392,19.783c2.997,0,6.121-0.099,9.345-0.282
	c18.724,25.153,48.677,41.478,82.373,41.478c56.593,0,102.635-46.042,102.635-102.635c0-2.051-0.067-4.087-0.187-6.108
	C274.052,85.596,283.939,68.747,278.584,54.031z M146.767,191.866c-22.221,0-42.386-8.935-57.121-23.388
	c21.843-3.62,46.45-10.216,71.308-19.261c24.857-9.045,47.929-19.785,67.061-31.104
	C224.034,159.442,189.121,191.866,146.767,191.866z M146.767,28.597c39.143,0,71.926,27.697,79.815,64.52
	c-19.456,12.786-45.018,25.19-73.151,35.428c-28.248,10.279-55.881,17.196-78.785,19.878c-6.063-11.404-9.514-24.399-9.514-38.19
	C65.132,65.218,101.753,28.597,146.767,28.597z M30.331,144.364c-0.361-0.993,1.274-7.8,14.865-19.385
	c1.244,8.605,3.557,16.869,6.804,24.65C35.706,149.198,30.693,145.357,30.331,144.364z M244.701,79.503
	c-2.593-8.245-6.203-16.042-10.678-23.249c18.061,0.125,23.51,4.263,23.888,5.3C258.257,62.506,256.775,68.791,244.701,79.503z"/>
<polygon fill="#FFFFFF" points="528.398,98.75 461.989,98.75 461.989,10.25 439.989,10.25 439.989,98.75 373.466,98.75
	373.466,120.75 439.989,120.75 439.989,209.344 461.989,209.344 461.989,120.75 528.398,120.75 "/>
<path fill="#FFFFFF" d="M839.958,41.482c-11.84-21.438-34.4-35.291-57.477-35.291c-12.064,0-30.063,3.732-47.507,21.452
	c-17.439-17.714-35.437-21.444-47.5-21.444c-23.094,0-45.665,13.865-57.501,35.325c-10.932,19.817-10.556,42.591,1.005,60.921
	c31.01,49.167,94.523,103.335,97.212,105.616l6.798,5.771l6.795-5.773c2.698-2.293,66.443-56.719,97.213-105.623
	C850.543,84.086,850.902,61.299,839.958,41.482z M687.475,27.199c14.214,0,27.752,7.9,39.151,22.846l8.349,10.948l8.349-10.948
	c11.403-14.95,24.943-22.854,39.158-22.854c15.548,0,30.893,9.595,39.094,24.443c7.3,13.219,7.171,27.658-0.353,39.617
	c-23.161,36.811-67.765,78.367-86.241,94.843c-18.415-16.41-62.896-57.839-86.241-94.852c-7.529-11.938-7.667-26.363-0.379-39.575
	C656.561,36.803,671.913,27.199,687.475,27.199z"/>
</svg>
